<mxfile host="65bd71144e">
    <diagram id="M85WTsVOoSQGxKqNbcje" name="Flow-development">
        <mxGraphModel dx="766" dy="386" grid="1" gridSize="10" guides="1" tooltips="1" connect="1" arrows="1" fold="1" page="1" pageScale="1" pageWidth="850" pageHeight="1100" math="0" shadow="0">
            <root>
                <mxCell id="0"/>
                <mxCell id="1" parent="0"/>
                <mxCell id="8" value="" style="edgeStyle=none;html=1;" parent="1" source="2" target="7" edge="1">
                    <mxGeometry relative="1" as="geometry"/>
                </mxCell>
                <mxCell id="2" value="Start git repo, set on your local folder with all constrains (.gitignore etc)" style="strokeWidth=2;html=1;shape=mxgraph.flowchart.start_1;whiteSpace=wrap;fillColor=#0050ef;fontColor=#ffffff;strokeColor=#001DBC;" parent="1" vertex="1">
                    <mxGeometry x="79" y="270" width="135" height="90" as="geometry"/>
                </mxCell>
                <mxCell id="14" style="edgeStyle=none;html=1;exitX=0.5;exitY=1;exitDx=0;exitDy=0;entryX=0.5;entryY=0;entryDx=0;entryDy=0;" parent="1" source="3" target="13" edge="1">
                    <mxGeometry relative="1" as="geometry"/>
                </mxCell>
                <mxCell id="3" value="&lt;div style=&quot;text-align: left&quot;&gt;&lt;span&gt;- Create unit test script&amp;nbsp;&lt;/span&gt;&lt;/div&gt;&lt;div style=&quot;text-align: left&quot;&gt;&lt;span&gt;- Create project parts, main codes structure&amp;nbsp;&lt;/span&gt;&lt;/div&gt;&lt;div style=&quot;text-align: left&quot;&gt;-&amp;nbsp;start script for testing code before commit (run linter and unit test etc)&lt;/div&gt;" style="rounded=1;whiteSpace=wrap;html=1;strokeWidth=2;" parent="1" vertex="1">
                    <mxGeometry x="27" y="520" width="239" height="60" as="geometry"/>
                </mxCell>
                <mxCell id="11" value="" style="edgeStyle=none;html=1;entryX=0.5;entryY=0;entryDx=0;entryDy=0;" parent="1" source="7" target="3" edge="1">
                    <mxGeometry relative="1" as="geometry">
                        <mxPoint x="131.5" y="500" as="targetPoint"/>
                    </mxGeometry>
                </mxCell>
                <mxCell id="7" value="&lt;span&gt;Prepare virtual env, install all package needs&lt;/span&gt;" style="rounded=1;whiteSpace=wrap;html=1;strokeWidth=2;align=left;" parent="1" vertex="1">
                    <mxGeometry x="46.5" y="410" width="200" height="60" as="geometry"/>
                </mxCell>
                <mxCell id="13" value="check IDE with git and virt env, unit test,&amp;nbsp; some scripts and project from beginning. Make sure everythings allright" style="whiteSpace=wrap;html=1;align=left;rounded=1;strokeWidth=2;" parent="1" vertex="1">
                    <mxGeometry x="46.5" y="630" width="200" height="60" as="geometry"/>
                </mxCell>
                <mxCell id="21" value="&lt;div&gt;&lt;b&gt;&lt;font&gt;&lt;font style=&quot;font-size: 11px&quot;&gt;Project Structure&lt;br&gt;&lt;/font&gt;&lt;br&gt;&lt;/font&gt;&lt;/b&gt;&lt;/div&gt;&lt;div&gt;&lt;font style=&quot;font-size: 10px&quot;&gt;main.py&lt;br&gt;README.md&lt;br&gt;.gitignore&lt;/font&gt;&lt;/div&gt;&lt;div&gt;&lt;font style=&quot;font-size: 10px&quot;&gt;/modules&lt;/font&gt;&lt;/div&gt;&lt;div&gt;/test&lt;/div&gt;&lt;div&gt;&lt;div&gt;&lt;span style=&quot;white-space: pre&quot;&gt;&#9;&lt;/span&gt;test_main.py&lt;/div&gt;&lt;div&gt;&lt;span style=&quot;white-space: pre&quot;&gt;&#9;&lt;/span&gt;check_all/py/sh&lt;/div&gt;&lt;/div&gt;&lt;div&gt;&lt;font style=&quot;font-size: 10px&quot;&gt;/docs&lt;/font&gt;&lt;/div&gt;&lt;div&gt;&lt;font style=&quot;font-size: 10px&quot;&gt;&lt;span&gt;&#9;&lt;/span&gt;&lt;span style=&quot;white-space: pre&quot;&gt;&#9;&lt;/span&gt;/image&lt;/font&gt;&lt;/div&gt;&lt;div&gt;&lt;font style=&quot;font-size: 10px&quot;&gt;&lt;span&gt;&#9;&lt;/span&gt;&lt;span&gt;&#9;&lt;/span&gt;&lt;span style=&quot;white-space: pre&quot;&gt;&#9;&lt;/span&gt;main.MD&lt;/font&gt;&lt;/div&gt;&lt;div&gt;&lt;font style=&quot;font-size: 10px&quot;&gt;&lt;span&gt;&#9;&lt;/span&gt;&lt;span&gt;&#9;&lt;/span&gt;&lt;span style=&quot;white-space: pre&quot;&gt;&#9;&lt;/span&gt;main.plantuml&lt;/font&gt;&lt;/div&gt;" style="text;html=1;strokeColor=default;fillColor=none;align=left;verticalAlign=middle;whiteSpace=wrap;rounded=0;shadow=1;fontSize=10;" parent="1" vertex="1">
                    <mxGeometry x="696.5" y="375" width="110" height="155" as="geometry"/>
                </mxCell>
                <mxCell id="38" value="" style="edgeStyle=elbowEdgeStyle;elbow=horizontal;endArrow=classic;html=1;fontFamily=Helvetica;fontSize=11;exitX=1;exitY=0.5;exitDx=0;exitDy=0;entryX=0;entryY=0.5;entryDx=0;entryDy=0;" parent="1" source="13" edge="1">
                    <mxGeometry width="50" height="50" relative="1" as="geometry">
                        <mxPoint x="396.5" y="480" as="sourcePoint"/>
                        <mxPoint x="344" y="325" as="targetPoint"/>
                    </mxGeometry>
                </mxCell>
                <mxCell id="41" style="edgeStyle=none;html=1;entryX=0.5;entryY=0;entryDx=0;entryDy=0;fontFamily=Helvetica;fontSize=11;" parent="1" source="39" edge="1">
                    <mxGeometry relative="1" as="geometry">
                        <mxPoint x="386.5" y="410" as="targetPoint"/>
                    </mxGeometry>
                </mxCell>
                <mxCell id="42" value="YES" style="edgeLabel;html=1;align=center;verticalAlign=middle;resizable=0;points=[];fontSize=11;fontFamily=Helvetica;" parent="41" vertex="1" connectable="0">
                    <mxGeometry x="0.1667" relative="1" as="geometry">
                        <mxPoint y="-13" as="offset"/>
                    </mxGeometry>
                </mxCell>
                <mxCell id="39" value="need any code update?" style="rhombus;whiteSpace=wrap;html=1;shadow=1;fontFamily=Helvetica;fontSize=11;strokeColor=#BD7000;fillColor=#f0a30a;fontColor=#000000;" parent="1" vertex="1">
                    <mxGeometry x="341.5" y="290" width="90" height="70" as="geometry"/>
                </mxCell>
                <mxCell id="66" style="edgeStyle=none;html=1;fontFamily=Helvetica;fontSize=11;" parent="1" source="54" target="65" edge="1">
                    <mxGeometry relative="1" as="geometry"/>
                </mxCell>
                <mxCell id="54" value="update drawio / UML model of project when do any editing" style="rounded=1;whiteSpace=wrap;html=1;align=left;strokeWidth=2;fillColor=#6a00ff;fontColor=#ffffff;strokeColor=#3700CC;" parent="1" vertex="1">
                    <mxGeometry x="326.5" y="410" width="120" height="60" as="geometry"/>
                </mxCell>
                <mxCell id="55" style="edgeStyle=none;html=1;entryX=0.5;entryY=0;entryDx=0;entryDy=0;fontFamily=Helvetica;fontSize=11;" parent="1" source="56" target="57" edge="1">
                    <mxGeometry relative="1" as="geometry"/>
                </mxCell>
                <mxCell id="56" value="run &lt;b&gt;check_all&lt;/b&gt;&amp;nbsp;script (linter, unit test, functuonal test etc run sequencially)" style="whiteSpace=wrap;html=1;align=left;rounded=1;strokeWidth=2;fillColor=#008a00;fontColor=#ffffff;strokeColor=#005700;" parent="1" vertex="1">
                    <mxGeometry x="516.5" y="410" width="140" height="60" as="geometry"/>
                </mxCell>
                <mxCell id="57" value="Can commit via GIT !!!" style="whiteSpace=wrap;html=1;align=center;rounded=1;strokeWidth=2;fillColor=#a20025;fontColor=#ffffff;strokeColor=#6F0000;" parent="1" vertex="1">
                    <mxGeometry x="536.5" y="520" width="100" height="60" as="geometry"/>
                </mxCell>
                <mxCell id="58" style="edgeStyle=none;html=1;entryX=0.5;entryY=0;entryDx=0;entryDy=0;fontFamily=Helvetica;fontSize=11;" parent="1" source="60" edge="1">
                    <mxGeometry relative="1" as="geometry">
                        <mxPoint x="586.5" y="410" as="targetPoint"/>
                        <Array as="points">
                            <mxPoint x="586.5" y="380"/>
                        </Array>
                    </mxGeometry>
                </mxCell>
                <mxCell id="59" value="YES" style="edgeLabel;html=1;align=center;verticalAlign=middle;resizable=0;points=[];fontSize=11;fontFamily=Helvetica;" parent="58" vertex="1" connectable="0">
                    <mxGeometry x="0.0603" relative="1" as="geometry">
                        <mxPoint y="-6" as="offset"/>
                    </mxGeometry>
                </mxCell>
                <mxCell id="60" value="need git commit ?&amp;nbsp;" style="rhombus;whiteSpace=wrap;html=1;shadow=1;fontFamily=Helvetica;fontSize=11;strokeColor=#BD7000;fillColor=#f0a30a;fontColor=#000000;" parent="1" vertex="1">
                    <mxGeometry x="544" y="290" width="85" height="70" as="geometry"/>
                </mxCell>
                <mxCell id="61" value="" style="edgeStyle=elbowEdgeStyle;elbow=horizontal;endArrow=classic;html=1;fontFamily=Helvetica;fontSize=11;exitX=1;exitY=0.5;exitDx=0;exitDy=0;entryX=0;entryY=0.5;entryDx=0;entryDy=0;" parent="1" target="60" edge="1">
                    <mxGeometry width="50" height="50" relative="1" as="geometry">
                        <mxPoint x="446.5" y="770" as="sourcePoint"/>
                        <mxPoint x="626.5" y="440" as="targetPoint"/>
                    </mxGeometry>
                </mxCell>
                <mxCell id="68" value="" style="edgeStyle=none;html=1;" parent="1" source="65" edge="1">
                    <mxGeometry relative="1" as="geometry">
                        <mxPoint x="386.5" y="630" as="targetPoint"/>
                    </mxGeometry>
                </mxCell>
                <mxCell id="65" value="&lt;span style=&quot;font-family: &amp;#34;helvetica&amp;#34;&quot;&gt;do any code update and extentions&lt;/span&gt;" style="rounded=1;whiteSpace=wrap;html=1;strokeWidth=2;align=left;" parent="1" vertex="1">
                    <mxGeometry x="329" y="520" width="115" height="60" as="geometry"/>
                </mxCell>
                <mxCell id="69" style="edgeStyle=none;html=1;entryX=0.5;entryY=0;entryDx=0;entryDy=0;" parent="1" edge="1">
                    <mxGeometry relative="1" as="geometry">
                        <mxPoint x="386.5" y="690" as="sourcePoint"/>
                        <mxPoint x="386.5" y="740" as="targetPoint"/>
                    </mxGeometry>
                </mxCell>
                <mxCell id="70" value="update docs, run auto doc generation (pdoc)&amp;nbsp;" style="whiteSpace=wrap;html=1;align=left;rounded=1;strokeWidth=2;" parent="1" vertex="1">
                    <mxGeometry x="329" y="740" width="120" height="60" as="geometry"/>
                </mxCell>
                <mxCell id="71" value="- update and run unit test&lt;br&gt;- run linter and make sure all codes OK (plint)" style="whiteSpace=wrap;html=1;align=left;rounded=1;strokeWidth=2;fillColor=#008a00;fontColor=#ffffff;strokeColor=#005700;" parent="1" vertex="1">
                    <mxGeometry x="323.5" y="630" width="131" height="60" as="geometry"/>
                </mxCell>
            </root>
        </mxGraphModel>
    </diagram>
</mxfile>